<?xml version="1.0" standalone="no"?>
<!DOCTYPE svg PUBLIC "-//W3C//DTD SVG 20010904//EN"
 "http://www.w3.org/TR/2001/REC-SVG-20010904/DTD/svg10.dtd">
<svg version="1.0" xmlns="http://www.w3.org/2000/svg"
 width="529.000000pt" height="529.000000pt" viewBox="0 0 529.000000 529.000000"
 preserveAspectRatio="xMidYMid meet">
<metadata>
Created by potrace 1.14, written by Peter Selinger 2001-2017
</metadata>
<g transform="translate(0.000000,529.000000) scale(0.100000,-0.100000)"
fill="#000000" stroke="none">
<path d="M2337 3983 c-1 0 -25 -3 -53 -6 -102 -9 -194 -76 -252 -184 l-30 -57
-99 -3 c-123 -4 -127 -5 -191 -27 -66 -22 -135 -86 -153 -141 -18 -57 -19
-145 -2 -223 8 -37 16 -80 18 -96 2 -15 7 -35 9 -45 5 -15 51 -227 81 -376 8
-38 24 -113 35 -165 11 -52 23 -108 26 -124 3 -16 6 -32 8 -35 2 -3 7 -22 10
-41 3 -19 8 -46 11 -60 3 -14 10 -45 15 -70 14 -72 109 -511 119 -553 5 -20 6
-39 2 -41 -4 -3 -58 -5 -121 -5 -63 0 -127 0 -141 0 l-25 -1 0 -232 1 -233
1110 0 c611 0 1126 2 1145 5 l35 5 0 210 c0 116 -2 220 -4 232 -3 22 -6 23
-190 25 l-186 3 0 975 c0 1054 2 1008 -53 1110 -46 83 -121 134 -215 147 -36
4 -906 11 -910 6z m460 -94 c458 0 496 -4 545 -56 32 -34 65 -107 73 -165 4
-23 6 -141 6 -263 -1 -1512 -2 -1575 -14 -1576 -59 -4 -530 1 -534 5 -4 3 -6
105 -6 226 l0 220 -111 0 -112 0 1 -221 c1 -200 -1 -222 -17 -228 -9 -3 -134
-5 -278 -3 l-260 3 0 907 c1 973 0 961 52 1054 29 53 86 87 158 93 29 2 55 7
58 10 3 2 8 2 13 0 4 -3 196 -5 426 -6z m1049 -2391 l-1 -183 -590 -2 c-374
-2 -582 1 -567 7 31 13 28 22 -7 17 -43 -7 -54 5 -57 65 -1 29 -3 55 -4 58 -1
3 -2 9 -1 13 1 5 -3 6 -9 2 -10 -6 -12 -70 -3 -118 3 -19 13 -29 31 -34 27 -7
26 -7 -8 -13 -19 -3 -40 -2 -46 2 -6 4 -13 5 -16 2 -5 -4 -121 -8 -158 -5 -12
1 -11 4 4 16 10 7 15 19 11 25 -4 6 -11 7 -18 2 -7 -5 -22 -9 -35 -10 -26 -1
-57 40 -48 64 4 9 4 26 0 37 -6 18 -7 18 -18 -4 -26 -51 10 -118 63 -119 13 0
21 -3 18 -7 -10 -9 -727 -11 -727 -2 0 9 64 82 125 145 l40 41 655 2 c360 1
778 3 929 4 l273 3 20 24 c11 14 37 44 57 66 20 23 44 51 53 63 10 12 22 21
26 21 5 0 8 -82 8 -182z"/>
<path d="M2725 3453 c-31 -8 -63 -42 -71 -77 -10 -44 -11 -647 -1 -653 8 -5
45 -5 176 -4 l40 1 -1 326 c0 341 -4 371 -46 393 -24 12 -74 20 -97 14z"/>
<path d="M2394 2605 c-18 -13 -18 -14 4 -8 12 3 25 9 28 14 8 14 -10 11 -32
-6z"/>
<path d="M2500 2612 c0 -5 7 -9 15 -9 8 0 12 4 9 9 -3 4 -9 8 -15 8 -5 0 -9
-4 -9 -8z"/>
<path d="M2652 2478 c3 -129 5 -143 21 -142 9 1 29 2 45 3 l27 2 -25 14 c-24
13 -25 17 -26 120 -1 80 -4 109 -15 116 -12 8 -12 10 1 19 12 8 11 10 -8 10
-23 0 -23 0 -20 -142z"/>
<path d="M2708 2613 c7 -3 16 -2 19 1 4 3 -2 6 -13 5 -11 0 -14 -3 -6 -6z"/>
<path d="M2745 2610 c4 -6 11 -8 16 -5 14 9 11 15 -7 15 -8 0 -12 -5 -9 -10z"/>
<path d="M2913 2478 l-1 -138 27 -1 c74 -3 167 4 176 13 7 7 5 9 -5 6 -8 -3
-20 0 -26 7 -6 6 -37 10 -68 9 l-56 -1 0 102 c0 84 -3 105 -17 116 -15 13 -12
15 23 20 l39 7 -46 -1 -46 -1 0 -138z"/>
<path d="M3023 2613 c9 -2 23 -2 30 0 6 3 -1 5 -18 5 -16 0 -22 -2 -12 -5z"/>
<path d="M3082 2613 c9 -2 19 -12 21 -21 3 -12 5 -10 6 6 1 17 -4 22 -21 21
-16 -1 -18 -3 -6 -6z"/>
<path d="M2540 2597 c0 -3 11 -18 25 -33 14 -15 25 -23 25 -17 0 5 -11 20 -25
33 -14 13 -25 21 -25 17z"/>
<path d="M2830 2596 c0 -2 8 -10 18 -17 15 -13 16 -12 3 4 -13 16 -21 21 -21
13z"/>
<path d="M2340 2560 c-63 -88 -2 -217 106 -225 64 -4 119 26 146 80 5 11 -1 7
-15 -10 -21 -25 -27 -27 -40 -17 -12 10 -21 11 -36 3 -77 -42 -168 48 -128
127 13 27 13 31 0 36 -8 4 -13 13 -9 21 9 24 -1 18 -24 -15z"/>
<path d="M2433 2568 c-34 -9 -43 -23 -20 -31 9 -3 9 -9 -1 -27 -10 -17 -11
-25 -2 -34 8 -8 10 -7 5 6 -10 25 37 53 64 38 12 -6 22 -15 22 -20 1 -6 2 -16
3 -22 3 -19 -24 -48 -45 -48 -10 0 -25 7 -33 16 -9 8 -16 11 -16 4 0 -6 11
-16 25 -22 20 -9 31 -8 51 3 23 12 27 11 36 -5 9 -16 11 -16 23 8 39 74 -30
156 -112 134z"/>
<path d="M2715 2564 c11 -8 19 -25 18 -37 -1 -15 0 -16 3 -4 3 9 14 17 25 17
21 0 21 0 20 -116 0 -69 3 -83 17 -86 17 -4 93 7 80 12 -12 4 -27 7 -38 9 -6
0 -10 38 -10 89 0 114 -11 132 -83 132 -49 -1 -51 -2 -32 -16z"/>
<path d="M2985 2560 c9 -10 15 -26 12 -34 -4 -9 -2 -18 3 -21 6 -4 10 5 10 18
0 22 3 23 50 19 40 -3 50 0 50 12 0 10 -6 13 -15 10 -8 -4 -15 -1 -15 5 0 7
-22 11 -57 11 -55 0 -56 0 -38 -20z"/>
<path d="M2860 2550 c0 -5 5 -10 11 -10 5 0 7 5 4 10 -3 6 -8 10 -11 10 -2 0
-4 -4 -4 -10z"/>
<path d="M3091 2504 c0 -11 3 -14 6 -6 3 7 2 16 -1 19 -3 4 -6 -2 -5 -13z"/>
<path d="M2865 2481 c-3 -5 -2 -12 3 -15 5 -3 9 1 9 9 0 17 -3 19 -12 6z"/>
<path d="M2985 2460 c12 -14 31 -19 66 -18 43 0 49 2 49 21 0 18 -2 19 -10 7
-6 -9 -13 -11 -17 -5 -5 6 -30 11 -56 12 -47 1 -48 1 -32 -17z"/>
<path d="M2595 2461 c-3 -5 -2 -12 3 -15 5 -3 9 1 9 9 0 17 -3 19 -12 6z"/>
<path d="M3001 2414 c0 -11 3 -14 6 -6 3 7 2 16 -1 19 -3 4 -6 -2 -5 -13z"/>
<path d="M3097 2389 c4 -13 8 -18 11 -10 2 7 -1 18 -6 23 -8 8 -9 4 -5 -13z"/>
<path d="M2489 1460 c-1 -14 -2 -51 -3 -83 l-1 -57 43 0 c23 0 42 5 42 11 0 6
-12 9 -27 7 -28 -3 -28 -2 -31 62 -3 64 -21 110 -23 60z"/>
<path d="M2683 1468 c-10 -15 -10 -76 1 -104 6 -15 9 -16 16 -5 4 8 4 24 0 37
-6 14 -5 26 0 29 7 4 7 13 0 24 -5 10 -6 21 -3 25 3 3 4 6 1 6 -3 0 -10 -6
-15 -12z"/>
<path d="M2757 1473 c-14 -13 -7 -33 11 -33 16 0 19 -8 18 -57 -1 -53 1 -58
22 -59 12 -1 22 3 22 7 0 5 -4 9 -10 9 -5 0 -10 25 -10 55 0 30 5 55 10 55 6
0 10 -4 10 -9 0 -5 9 -7 19 -4 37 10 1 28 -47 24 -31 -2 -42 0 -38 8 8 12 3
15 -7 4z"/>
<path d="M2887 1468 c-3 -9 0 -21 7 -27 14 -12 13 -66 -2 -84 -17 -20 0 -34
40 -33 43 2 64 15 27 17 -13 1 -29 1 -36 0 -6 -1 -14 3 -18 9 -3 5 1 10 9 10
12 0 16 11 16 45 0 25 5 45 10 45 6 0 10 -5 10 -11 0 -5 5 -7 10 -4 21 13 9
25 -24 25 -19 0 -36 5 -38 12 -3 8 -7 6 -11 -4z"/>
<path d="M3177 1465 c3 -9 6 -44 7 -77 1 -57 3 -61 26 -64 21 -3 23 -2 9 9
-11 9 -15 28 -14 70 0 46 -3 61 -17 68 -14 8 -16 6 -11 -6z"/>
<path d="M2204 1452 c-9 -5 -8 -10 2 -19 7 -8 15 -9 19 -3 3 5 13 6 22 3 10
-4 14 -2 11 7 -5 15 -38 22 -54 12z"/>
<path d="M2363 1453 c-7 -3 -13 -11 -13 -19 0 -8 6 -14 13 -13 36 4 48 -2 45
-23 -4 -27 18 -35 25 -8 3 12 -3 29 -14 43 -10 12 -18 18 -19 13 0 -5 -6 -4
-12 1 -7 6 -19 8 -25 6z"/>
<path d="M3001 1441 c-37 -68 34 -140 109 -111 3 1 8 2 12 1 4 0 5 6 2 14 -7
18 -6 17 -36 6 -44 -17 -89 38 -67 81 6 10 5 19 0 23 -6 3 -15 -3 -20 -14z"/>
<path d="M3050 1442 c0 -13 7 -18 23 -18 17 1 22 -4 21 -21 0 -13 3 -23 8 -23
4 0 11 -1 15 -2 3 -2 7 6 9 17 4 27 -19 55 -50 61 -20 3 -26 0 -26 -14z"/>
<path d="M3220 1451 c0 -6 8 -11 18 -11 16 0 18 -8 18 -58 -1 -46 2 -58 15
-59 13 -1 15 7 12 45 -5 81 -8 87 -36 90 -15 2 -27 -1 -27 -7z"/>
<path d="M2157 1443 c-12 -11 -8 -19 23 -52 17 -17 40 -31 53 -31 20 0 18 4
-15 33 -21 18 -38 38 -38 45 0 13 -13 16 -23 5z"/>
<path d="M2350 1386 c0 -2 8 -10 18 -17 15 -13 16 -12 3 4 -13 16 -21 21 -21
13z"/>
<path d="M2157 1347 c-3 -8 -3 -18 0 -21 10 -10 101 -7 107 3 8 12 -23 23 -37
14 -15 -9 -50 -4 -58 9 -4 5 -9 3 -12 -5z"/>
</g>
</svg>
